<svg width="52" height="52" xmlns="http://www.w3.org/2000/svg"><defs><filter id="prefix__a"><feColorMatrix values="0 0 0 0 0.262745 0 0 0 0 0.329412 0 0 0 0 0.866667 0 0 0 1.000000 0"/></filter></defs><g filter="url(#prefix__a)" fill="none"><path d="M0 0h52v52H0z"/><path d="M28.073 10.622L39.5 17.013a1.701 1.701 0 01.87 1.48 1.691 1.691 0 01-.87 1.48l-11.427 6.391a4.893 4.893 0 01-4.776 0L11.87 19.973a1.702 1.702 0 01-.87-1.48 1.691 1.691 0 01.87-1.48l11.427-6.39a4.892 4.892 0 014.776 0z" fill="#2196F3"/><path d="M28.011 16.622l16.365 9.153a1.702 1.702 0 01.87 1.48 1.69 1.69 0 01-.87 1.48l-16.365 9.153a4.893 4.893 0 01-4.776 0L6.87 28.735a1.702 1.702 0 01-.87-1.48 1.691 1.691 0 01.87-1.48l16.365-9.153a4.893 4.893 0 014.776 0z" fill="#2196F3" opacity=".7"/><path d="M28.384 22.621l22.747 12.723A1.7 1.7 0 0152 36.822a1.688 1.688 0 01-.869 1.477L28.384 51.022a4.885 4.885 0 01-4.768 0L.869 38.299A1.7 1.7 0 010 36.822a1.688 1.688 0 01.869-1.478l22.747-12.723a4.885 4.885 0 014.768 0z" fill="#2196F3" opacity=".4"/></g></svg>